<?xml version='1.0' encoding='UTF-8'?>
<svg xmlns="http://www.w3.org/2000/svg" width="512" height="512" version="1.2" baseProfile="tiny"><title>Reach Right Marketing Logo</title>
<path d="M0 0 C1.46637362 -0.00346065 2.93274464 -0.00822794 4.39911026 -0.01418173 C8.41096134 -0.02666535 12.42259738 -0.02053346 16.43444908 -0.01122308 C20.7678323 -0.00442214 25.10117911 -0.01491895 29.43455505 -0.02316284 C37.91639869 -0.03649088 46.39816262 -0.03362667 54.88000936 -0.02492492 C61.77380253 -0.01814558 68.66757339 -0.01723274 75.56136894 -0.02049637 C77.03395501 -0.02118592 77.03395501 -0.02118592 78.5362903 -0.0218894 C80.53072565 -0.02284858 82.52516099 -0.02382122 84.51959633 -0.02480717 C103.2136245 -0.03335823 121.9076085 -0.02353115 140.60162943 -0.00740607 C156.63873351 0.00599894 172.67577245 0.00366695 188.71287537 -0.01016235 C207.34225965 -0.02621957 225.97160525 -0.03253648 244.60099548 -0.02332556 C246.58772559 -0.02236993 248.57445571 -0.02142681 250.56118584 -0.02049637 C251.5386644 -0.02003354 252.51614295 -0.01957072 253.52324207 -0.01909386 C260.40852544 -0.01650456 267.29378424 -0.02087365 274.1790638 -0.02793503 C282.57015819 -0.0363517 290.96116839 -0.03406627 299.35225315 -0.0180928 C303.63274213 -0.01021267 307.91309079 -0.00711412 312.19357872 -0.01704025 C316.11354896 -0.02599287 320.03324905 -0.02104507 323.95319485 -0.0051076 C325.3696106 -0.00176222 326.78604927 -0.00344843 328.20245022 -0.01073496 C335.68669799 -0.04627736 341.67725367 0.18629944 348.49436951 3.38095093 C350.27907654 4.03643921 350.27907654 4.03643921 352.09983826 4.70516968 C365.46163863 9.79052227 376.76831573 16.87227135 387.49436951 26.38095093 C388.25233826 27.04352905 389.01030701 27.70610718 389.79124451 28.38876343 C400.65533279 38.52087413 408.57059236 51.85928571 414.49436951 65.38095093 C415.26893195 67.00830374 415.26893195 67.00830374 416.05914211 68.66853237 C418.36274571 74.92026067 417.9188585 81.48881001 417.89550781 88.06089783 C417.90111747 89.55854444 417.90802171 91.05618667 417.91610378 92.55382198 C417.93441216 96.65701157 417.93406245 100.76001737 417.93052065 104.86323845 C417.92990746 109.29358425 417.94647633 113.72387162 417.96069336 118.15419006 C417.98559112 126.83034302 417.99385695 135.50643483 417.99553049 144.18262053 C417.99695729 151.2384697 418.00312814 158.29429873 418.01263237 165.35014153 C418.0390485 185.36976195 418.0528914 205.38933417 418.05064095 225.40897215 C418.05052108 226.48777446 418.05040121 227.56657678 418.05027771 228.67807007 C418.05015507 229.75819518 418.05003243 230.83832028 418.04990607 231.95117646 C418.04868742 249.44550483 418.07737821 266.93963927 418.11969281 284.43391157 C418.16283227 302.41161836 418.18350062 320.38923067 418.18091148 338.36699051 C418.17991708 348.45414574 418.18809122 358.54109775 418.22044563 368.62820625 C418.24782458 377.2190076 418.25423467 385.80951366 418.23391736 394.40033985 C418.22415258 398.77906163 418.22383726 403.15721764 418.24997711 407.53588486 C418.27371629 411.55396309 418.26913584 415.57103151 418.24312472 419.58908653 C418.23855078 421.03325472 418.24385011 422.47750009 418.26070494 423.92157716 C418.51398852 447.1856377 404.70857605 466.76861168 389.14573669 483.00985718 C375.83628811 496.60031139 375.83628811 496.60031139 367.49436951 499.38095093 C366.83436951 500.04095093 366.17436951 500.70095093 365.49436951 501.38095093 C362.81930799 502.58632609 360.15192508 503.72453438 357.43186951 504.81845093 C356.66052673 505.13120972 355.88918396 505.44396851 355.09446716 505.76620483 C342.53996968 510.81607336 332.38783491 512.53005354 318.8145752 512.52812195 C317.41337894 512.53142478 316.01218363 512.53515123 314.61098951 512.53926343 C310.76975664 512.54924389 306.9285394 512.55299382 303.08729541 512.55565274 C298.94050938 512.55956756 294.79373558 512.56914503 290.6469574 512.5778656 C280.6371068 512.59759659 270.62725524 512.60769186 260.61739007 512.61659339 C255.89798632 512.62098173 251.1785837 512.62634711 246.45918083 512.63158226 C230.7613921 512.64859102 215.06360406 512.66308391 199.36580753 512.670331 C195.29529888 512.67224074 191.22479024 512.6741611 187.15428162 512.67611694 C185.63681538 512.67684255 185.63681538 512.67684255 184.08869325 512.67758282 C167.710501 512.68587843 151.33238189 512.711209 134.95422155 512.74369762 C118.12125651 512.77681493 101.28832857 512.79478397 84.45533079 512.79797524 C75.01147544 512.80013599 65.56772677 512.80882079 56.12390327 512.83443642 C48.07920014 512.8562073 40.03462961 512.86416253 31.98990036 512.85446963 C27.89065145 512.8499434 23.79167577 512.85171259 19.69246483 512.87123108 C15.92860881 512.88899678 12.16522262 512.88775822 8.40136068 512.87233379 C6.41824156 512.86887468 4.43511672 512.88488323 2.45206791 512.90193826 C-7.09069607 512.83456379 -15.3817838 511.00455678 -24.50563049 508.38095093 C-25.82873465 508.00382942 -27.1518805 507.62685414 -28.47507328 507.25004369 C-29.47515716 506.96324308 -30.47524104 506.67644247 -31.50563049 506.38095093 C-31.50563049 505.72095093 -31.50563049 505.06095093 -31.50563049 504.38095093 C-32.71219299 504.04063843 -32.71219299 504.04063843 -33.94313049 503.69345093 C-45.24579328 499.529312 -55.16232176 491.95715991 -63.50563049 483.38095093 C-64.15145081 482.7699353 -64.79727112 482.15891968 -65.46266174 481.52938843 C-79.18265028 468.4159678 -93.47990381 446.83902728 -94.69323802 427.37073481 C-94.76941627 423.66543983 -94.78221144 419.96279387 -94.77305603 416.25700378 C-94.77679615 414.8198066 -94.78139911 413.38261144 -94.78678668 411.94541949 C-94.79898758 408.00941951 -94.79875965 404.07350472 -94.79639792 400.13749015 C-94.79598902 395.88715875 -94.807036 391.63685438 -94.81651306 387.38653564 C-94.83310839 379.06398977 -94.83862196 370.74147223 -94.83973782 362.4189112 C-94.84068905 355.6514745 -94.8448031 348.88404713 -94.85113907 342.11661339 C-94.86874798 322.91693005 -94.87797856 303.71726904 -94.87647812 284.51757757 C-94.87639821 283.48305474 -94.8763183 282.44853191 -94.87623596 281.38265991 C-94.8761542 280.3468694 -94.87607244 279.3110789 -94.8759882 278.2439008 C-94.87517554 261.46281721 -94.89430899 244.68182343 -94.9225127 227.90076581 C-94.95126368 210.65758415 -94.96505175 193.41444626 -94.96332514 176.17124003 C-94.96266198 166.49555365 -94.96812205 156.8199614 -94.98968124 147.14429665 C-95.00792225 138.90519136 -95.01221648 130.66622289 -94.9986624 122.42710612 C-94.99214728 118.22696656 -94.99196254 114.02708923 -95.0093689 109.82697487 C-95.02516972 105.97449024 -95.02216531 102.12247423 -95.00480063 98.27000054 C-95.00031 96.23202894 -95.01533286 94.19404239 -95.03127992 92.15612823 C-94.97468794 84.54709744 -93.90124301 78.18528932 -91.36324656 70.99880332 C-90.34996926 68.36492403 -90.34996926 68.36492403 -90.50563049 65.38095093 C-89.84563049 65.38095093 -89.18563049 65.38095093 -88.50563049 65.38095093 C-88.10344299 64.08350952 -88.10344299 64.08350952 -87.69313049 62.75985718 C-83.76538631 51.58387457 -76.89980838 42.44835376 -69.50563049 33.38095093 C-68.94746643 32.66809937 -68.38930237 31.9552478 -67.81422424 31.22079468 C-64.70901935 27.37101749 -61.27654568 24.49797427 -57.24000549 21.64266968 C-55.37718804 20.35639535 -55.37718804 20.35639535 -53.50563049 18.38095093 C-45.68569955 12.99117213 -37.33256396 7.3109337 -27.94313049 5.25595093 C-26.80875549 4.96720093 -25.67438049 4.67845093 -24.50563049 4.38095093 C-24.17563049 3.39095093 -23.84563049 2.40095093 -23.50563049 1.38095093 C-23.50563049 2.04095093 -23.50563049 2.70095093 -23.50563049 3.38095093 C-22.31980912 2.89380804 -21.13398775 2.40666515 -19.9122324 1.90476036 C-13.36515566 -0.25863116 -6.8238767 -0.03516505 0 0 Z M6.49436951 111.38095093 C-0.40959901 121.86543504 -1.66031026 132.14180014 -1.63934326 144.41152954 C-1.64160882 145.39403427 -1.64387437 146.376539 -1.64620858 147.3888166 C-1.65251628 150.66648025 -1.6517213 153.94410221 -1.65089417 157.22177124 C-1.65388768 159.57783562 -1.65729065 161.93389952 -1.66107178 164.28996277 C-1.66989657 170.68058945 -1.67224926 177.07120273 -1.67288756 183.46183491 C-1.67359895 187.45741444 -1.67567109 191.45299171 -1.67838478 195.44857025 C-1.68718533 208.67686317 -1.69180512 221.905148 -1.69105431 235.13344386 C-1.69101435 235.84563389 -1.69097439 236.55782392 -1.69093323 237.29159546 C-1.69089235 238.00466188 -1.69085147 238.7177283 -1.69080935 239.4524028 C-1.69040309 251.00271748 -1.69996904 262.55299953 -1.71407159 274.10330477 C-1.72846024 285.98230866 -1.7353404 297.86129666 -1.73447782 309.74030948 C-1.7341467 316.4017163 -1.73705284 323.06309371 -1.74765587 329.72449493 C-1.75735995 335.99210576 -1.75740015 342.2596445 -1.75013924 348.52725792 C-1.74909626 350.82173201 -1.75143917 353.11621064 -1.75749969 355.41067696 C-2.02546945 382.2872624 -2.02546945 382.2872624 11.43186951 404.88095093 C15.29720372 408.48169381 18.6941405 411.19137278 23.49436951 413.38095093 C24.58221898 413.88444958 24.58221898 413.88444958 25.69204521 414.39811993 C33.86287831 417.79774193 41.62828985 417.93017425 50.32298279 417.85092163 C51.88946681 417.85143141 53.45595108 417.85369338 55.02243042 417.8575592 C59.24296084 417.86294128 63.46304612 417.84367368 67.68349695 417.81945825 C72.10724617 417.79806221 76.53099547 417.79875332 80.95478821 417.79676819 C88.37040309 417.79033932 95.78585186 417.76915289 103.20140076 417.73764038 C112.73064286 417.69719994 122.2597774 417.67992795 131.78909492 417.670331 C139.98290583 417.66204621 148.17669384 417.64481489 156.37048483 417.62529349 C159.00655747 417.6192221 161.64263099 417.61408257 164.2787056 417.60894203 C168.40738593 417.60018591 172.53601246 417.5859034 176.6646595 417.56723213 C178.18327177 417.56109212 179.70189195 417.55665173 181.2205143 417.55398941 C183.28435486 417.55002999 185.34807216 417.53993428 187.41188049 417.52812195 C189.14784831 417.52171173 189.14784831 417.52171173 190.91888618 417.515172 C193.42581682 417.67261949 193.42581682 417.67261949 194.49436951 416.38095093 C194.59396571 414.5393607 194.62517361 412.69398126 194.62718201 410.84970093 C194.6291156 409.16940796 194.6291156 409.16940796 194.63108826 407.45516968 C194.62722107 406.27567749 194.62335388 405.0961853 194.61936951 403.88095093 C194.62323669 402.70145874 194.62710388 401.52196655 194.63108826 400.30673218 C194.62979919 399.18653687 194.62851013 398.06634155 194.62718201 396.91220093 C194.62549011 395.35855835 194.62549011 395.35855835 194.62376404 393.77352905 C194.76402103 391.4279727 194.76402103 391.4279727 193.49436951 390.38095093 C191.85964069 390.29394751 190.22122896 390.2739403 188.58421326 390.28329468 C187.10018005 390.28812866 187.10018005 390.28812866 185.58616638 390.2930603 C184.54524841 390.30143921 183.50433044 390.30981812 182.43186951 390.31845093 C180.86469177 390.32521851 180.86469177 390.32521851 179.26585388 390.3321228 C176.67530015 390.34395182 174.08487205 390.36127259 171.49436951 390.38095093 C170.66333971 383.38562327 170.35113095 376.50745786 170.36738586 369.46638489 C170.36582587 368.4131568 170.36426588 367.35992871 170.36265862 366.27478462 C170.35869222 362.77036394 170.36182121 359.26598711 170.36497498 355.76156616 C170.36361908 353.23957799 170.36183808 350.71759002 170.35966492 348.19560242 C170.35558685 342.07381653 170.35617169 335.95204671 170.35907756 329.83026063 C170.36133996 324.85768048 170.36164049 319.88510378 170.36055374 314.91252327 C170.36040051 314.20367441 170.36024728 313.49482556 170.3600894 312.76449643 C170.35976967 311.32440551 170.35944545 309.88431458 170.35911681 308.44422365 C170.35627012 294.96428887 170.35953728 281.48436092 170.36491717 268.00442726 C170.3693932 256.4303061 170.36860115 244.85619496 170.36399841 233.28207397 C170.35865333 219.83497184 170.35653556 206.38787564 170.35961068 192.94077259 C170.35992923 191.50886063 170.3602436 190.07694866 170.36055374 188.6450367 C170.36070802 187.94051506 170.36086229 187.23599342 170.36102124 186.51012264 C170.36188595 181.53714185 170.3604247 176.56416482 170.35807419 171.59118462 C170.35498588 164.9107469 170.35716702 158.23033116 170.36296844 151.54989433 C170.36429677 149.09115633 170.36390072 146.63241674 170.36170578 144.17367935 C170.35899738 140.8333189 170.36237145 137.49302061 170.36738586 134.15266418 C170.36515514 133.16631546 170.36292442 132.17996673 170.3606261 131.16372865 C170.36323385 130.27615533 170.3658416 129.388582 170.36852837 128.47411251 C170.36869072 127.70224572 170.36885307 126.93037893 170.36902034 126.13512224 C170.49436951 124.38095093 170.49436951 124.38095093 171.49436951 123.38095093 C172.86741095 123.27477039 174.24581923 123.23691734 175.6229248 123.22705078 C176.51305267 123.21845032 177.40318054 123.20984985 178.32028198 123.20098877 C179.30464737 123.19672882 180.28901276 123.19246887 181.3032074 123.18807983 C182.33413513 123.17990234 183.36506287 123.17172485 184.42723083 123.16329956 C187.85715648 123.13838103 191.28704045 123.12190979 194.71702576 123.10751343 C196.47139859 123.09952791 196.47139859 123.09952791 198.2612133 123.09138107 C204.4560315 123.06461677 210.65082935 123.04525558 216.84568787 123.03085327 C223.24267221 123.01423088 229.6391388 122.96948199 236.03592777 122.91848183 C240.95422955 122.88479854 245.87240892 122.87327433 250.79081535 122.86762619 C253.14829383 122.86091281 255.50576423 122.84568865 257.86313057 122.82173538 C261.16910266 122.79007024 264.47368558 122.79005025 267.7797699 122.79745483 C268.74996567 122.7810495 269.72016144 122.76464417 270.71975708 122.7477417 C277.03155069 122.80544745 281.78926156 123.97167187 286.49436951 128.38095093 C289.46865415 132.3319453 289.87413753 135.23705325 289.89309692 140.13237 C289.89974375 140.7981776 289.90639058 141.46398521 289.91323882 142.1499688 C289.93184075 144.37335998 289.92926555 146.59621168 289.92674255 148.81967163 C289.93576146 150.41645567 289.946089 152.01323278 289.95762634 153.61000061 C289.98520742 157.94016322 289.99448236 162.27019451 290.00048041 166.60043359 C290.00986119 171.12751995 290.03606435 175.65450811 290.06048584 180.18153381 C290.10416266 188.75201192 290.13270237 197.32247098 290.15580922 205.89302653 C290.18285454 215.65117532 290.22676647 225.40922537 290.27209795 235.16730368 C290.36496117 255.23846632 290.43663424 275.30965852 290.49436951 295.38095093 C294.8068556 295.4098163 299.11931712 295.42770348 303.43186951 295.44345093 C304.66356873 295.45182983 305.89526794 295.46020874 307.16429138 295.46884155 C308.91902771 295.47367554 308.91902771 295.47367554 310.70921326 295.47860718 C311.79323425 295.48384399 312.87725525 295.48908081 313.99412537 295.49447632 C316.43486899 295.6652199 316.43486899 295.6652199 317.49436951 294.38095093 C317.5977628 292.3324617 317.62960001 290.28035353 317.6348114 288.22926331 C317.63778252 287.57942374 317.64075365 286.92958418 317.6438148 286.2600525 C317.65253774 284.06620834 317.65401313 281.87241852 317.65550232 279.67855835 C317.66012837 278.11169314 317.66515273 276.54482906 317.67054749 274.97796631 C317.68370368 270.7066953 317.69012397 266.43544003 317.69455814 262.16415191 C317.6974868 259.49344339 317.70159146 256.8227392 317.70606232 254.15203285 C317.71975256 245.79057433 317.72940882 237.42912565 317.73326421 229.0676567 C317.73773343 219.42784836 317.75522186 209.78818264 317.7842648 200.14841765 C317.8059412 192.69349162 317.81597184 185.2386055 317.81730533 177.78364831 C317.81835012 173.33427316 317.82418684 168.88503178 317.84212494 164.43568993 C317.85870631 160.24058348 317.86071274 156.04570983 317.85198593 151.85058212 C317.85122061 150.31884827 317.85549083 148.78710141 317.86544418 147.2553997 C317.96584945 130.82674965 315.12989603 117.69737265 303.72093201 105.45516968 C294.21772391 96.60218108 282.59245801 93.90748255 269.90647888 94 C268.90028755 93.99532003 267.89409622 93.99064006 266.85741425 93.98581827 C263.51751146 93.97394228 260.17802465 93.98329655 256.83811951 93.99276733 C254.43072777 93.98869835 252.02333789 93.98335465 249.61595154 93.97683716 C243.77499284 93.96461068 237.93416421 93.96635457 232.09320164 93.97507508 C227.34288142 93.9818715 222.59259359 93.98275992 217.8422699 93.97950363 C217.16419737 93.97904393 216.48612485 93.97858423 215.78750467 93.9781106 C214.40968258 93.97715135 213.0318605 93.97617871 211.65403843 93.97519283 C198.75749102 93.96665393 185.86100775 93.97644944 172.96447086 93.99259393 C161.91711331 94.00599576 150.86985035 94.00366724 139.82249451 93.98983765 C126.9696726 93.97375524 114.1169068 93.96747777 101.26407623 93.97667444 C99.89154054 93.97763001 98.51900483 93.97857312 97.14646912 93.97950363 C96.47129069 93.97996646 95.79611226 93.98042928 95.10047388 93.98090614 C90.36009522 93.98348806 85.61975238 93.97914231 80.87937927 93.97206497 C74.49021442 93.96337722 68.1012276 93.96945049 61.71208191 93.98674774 C59.37203771 93.99070289 57.03197844 93.98959526 54.69194031 93.98295975 C51.48851362 93.97471583 48.28565124 93.98510047 45.08226013 94 C44.16463142 93.99330783 43.24700272 93.98661567 42.30156708 93.97972071 C27.69766165 94.11073624 15.72551704 100.00685844 6.49436951 111.38095093 Z M220.78559971 320.66617393 C218.51286802 323.6844026 218.98893892 327.44219708 218.94749451 331.08407593 C218.92671844 331.97433472 218.90594238 332.86459351 218.88453674 333.78182983 C218.82158464 336.73147675 218.78193912 339.68087878 218.74436951 342.63095093 C218.70884125 344.67880451 218.6731951 346.72665605 218.63743591 348.77450562 C218.40515394 364.0642558 218.54737449 379.3436274 218.86936951 394.63095093 C218.89051819 395.66530273 218.91166687 396.69965454 218.93345642 397.76535034 C218.99626115 400.68431391 219.06735203 403.60291452 219.14280701 406.52157593 C219.16271698 407.39338501 219.18262695 408.26519409 219.20314026 409.16342163 C219.21688433 413.4080081 219.21688433 413.4080081 220.49436951 417.38095093 C232.84625366 417.45034825 245.19809172 417.50370987 257.55013084 417.53638744 C263.28519432 417.55206811 269.02012479 417.57335012 274.75511169 417.60726929 C280.28586262 417.63977717 285.81648531 417.65778584 291.34732437 417.66558266 C293.4613357 417.67114161 295.57533973 417.68199631 297.68929672 417.6981411 C300.64189272 417.71980145 303.59395342 417.72292264 306.5466156 417.7215271 C307.42774521 417.73231293 308.30887482 417.74309875 309.21670532 417.75421143 C311.88794331 417.77622645 311.88794331 417.77622645 315.49436951 417.38095093 C318.09815526 413.4752723 317.78975938 410.17471196 317.78489685 405.64266968 C317.79161407 404.74972198 317.7983313 403.85677429 317.80525208 402.93676758 C317.82427398 399.98060569 317.8281581 397.02467023 317.83030701 394.06845093 C317.83673099 392.01726182 317.84345905 389.96607363 317.85047913 387.91488647 C317.86246166 383.61416498 317.86615884 379.31352388 317.86497498 375.01278687 C317.8647715 369.49425952 317.89209924 363.9762455 317.92651939 358.45783997 C317.94872246 354.22170632 317.95281458 349.98569761 317.95175552 345.74951172 C317.95412046 343.71447985 317.96299383 341.67944499 317.97842026 339.64447021 C317.99795118 336.8023547 317.99229371 333.96136466 317.98020935 331.11923218 C317.99144836 330.2744632 318.00268738 329.42969421 318.01426697 328.55932617 C317.96801836 324.1722903 317.96801836 324.1722903 316.01150513 320.35906982 C312.2850003 318.91100927 308.67307489 318.96401289 304.73435974 318.99276733 C303.40934952 318.9848819 303.40934952 318.9848819 302.05757141 318.97683716 C299.13918858 318.96363847 296.22135158 318.97237406 293.30296326 318.98251343 C291.27562353 318.98049284 289.24828451 318.97758152 287.22094727 318.97381592 C282.97323177 318.96939289 278.72570558 318.97582368 274.47801208 318.98983765 C269.02795336 319.00694034 263.57833747 318.99708125 258.12829494 318.97912025 C253.9427658 318.96829119 249.75734205 318.97172454 245.57180977 318.97950363 C243.56191518 318.9815075 241.55201109 318.97903984 239.54212761 318.97206497 C236.73615455 318.96446378 233.93090386 318.97603548 231.12498474 318.99276733 C230.29113754 318.98669464 229.45729034 318.98062195 228.59817505 318.97436523 C224.42708066 318.91408735 224.42708066 318.91408735 220.78559971 320.66617393 Z " fill="#00b9ff" transform="translate(94.50563049316406,-0.380950927734375)"/>
<path d="M0 0 C1.03852112 -0.00350464 2.07704224 -0.00700928 3.14703369 -0.01062012 C6.55276323 -0.01936692 9.95828232 -0.0136154 13.36401367 -0.00683594 C15.74053487 -0.0081841 18.11705579 -0.01012589 20.49357605 -0.01263428 C25.46042522 -0.01557554 30.42720222 -0.01131806 35.39404297 -0.00195312 C41.76410787 0.0094719 48.13400479 0.00285629 54.50406361 -0.00909805 C59.40503715 -0.01631705 64.30597069 -0.01402906 69.20694542 -0.00884247 C71.55652575 -0.0075077 73.9061097 -0.00914766 76.25568581 -0.01380157 C79.53253475 -0.01887077 82.80910906 -0.01115222 86.0859375 0 C87.05794601 -0.00404846 88.02995453 -0.00809692 89.03141785 -0.01226807 C90.3706279 -0.00380859 90.3706279 -0.00380859 91.7368927 0.00482178 C92.51057096 0.00557583 93.28424921 0.00632988 94.08137226 0.00710678 C96.21948242 0.25878906 96.21948242 0.25878906 100.21948242 2.25878906 C100.21948242 43.17878906 100.21948242 84.09878906 100.21948242 126.25878906 C93.46948242 128.50878906 93.46948242 128.50878906 88.84448242 127.88378906 C87.97049805 127.77292969 87.09651367 127.66207031 86.19604492 127.54785156 C85.5437793 127.45246094 84.89151367 127.35707031 84.21948242 127.25878906 C83.88948242 127.91878906 83.55948242 128.57878906 83.21948242 129.25878906 C83.21948242 128.59878906 83.21948242 127.93878906 83.21948242 127.25878906 C81.95081078 127.50228592 81.95081078 127.50228592 80.6565094 127.7507019 C77.12408027 128.27289213 73.79674575 128.38583408 70.22705078 128.38818359 C69.55455292 128.38993591 68.88205505 128.39168823 68.18917847 128.39349365 C65.97920094 128.39787206 63.76930443 128.39498601 61.55932617 128.39160156 C60.00720708 128.3922763 58.45508809 128.39324775 56.90296936 128.39450073 C53.65079746 128.39597275 50.39865307 128.39384113 47.14648438 128.38916016 C43.01365655 128.38349653 38.88089417 128.38672354 34.74806881 128.39273262 C31.54010035 128.39638024 28.33214689 128.39517998 25.12417793 128.39260483 C23.60261591 128.39194538 22.08105245 128.39272895 20.55949211 128.39508438 C-7.76309843 128.42927832 -7.76309843 128.42927832 -14.78051758 122.25878906 C-18.96713899 117.85746912 -19.9074977 114.50921685 -19.90077209 108.56378174 C-19.90214676 107.62431198 -19.90352142 106.68484222 -19.90493774 105.71690369 C-19.90134247 104.69335281 -19.89774719 103.66980194 -19.89404297 102.61523438 C-19.894189 101.53200394 -19.89433502 100.4487735 -19.89448547 99.3327179 C-19.89378857 95.75076294 -19.88600652 92.16885993 -19.87817383 88.58691406 C-19.87630886 86.10398385 -19.87488533 83.62105327 -19.87388611 81.13812256 C-19.87045753 75.26982097 -19.86257527 69.40153857 -19.85253662 63.53324485 C-19.84025732 56.19566885 -19.83489054 48.85809175 -19.8293457 41.52050781 C-19.81861934 28.43325875 -19.80174243 15.34602509 -19.78051758 2.25878906 C-13.05091875 0.52842431 -6.93209151 -0.02917629 0 0 Z " fill="#00b9ff" transform="translate(139.780517578125,262.7412109375)"/>
<path d="M0 0 C1.60685889 -0.00054241 1.60685889 -0.00054241 3.24617958 -0.00109577 C6.70288613 0.00113776 10.15910328 0.02395816 13.61572266 0.04760742 C15.75414802 0.05202 17.89257661 0.05507947 20.03100586 0.0567627 C27.94731514 0.07247134 35.86355499 0.11435511 43.77978516 0.15307617 C70.32416016 0.24588867 70.32416016 0.24588867 97.40478516 0.34057617 C97.40478516 38.62057617 97.40478516 76.90057617 97.40478516 116.34057617 C57.80478516 116.34057617 18.20478516 116.34057617 -22.59521484 116.34057617 C-22.63646484 99.44870117 -22.67771484 82.55682617 -22.72021484 65.15307617 C-22.73842285 59.82127197 -22.75663086 54.48946777 -22.77539062 48.99609375 C-22.78442383 42.48059082 -22.78442383 42.48059082 -22.78610229 39.42948914 C-22.78917156 37.30053369 -22.79620175 35.17158171 -22.80636597 33.04264832 C-22.8209991 29.81613126 -22.82302703 26.5898265 -22.82226562 23.36328125 C-22.82946184 22.41633046 -22.83665806 21.46937967 -22.84407234 20.49373341 C-22.82143741 13.33162988 -21.66032914 8.6870857 -16.59521484 3.34057617 C-11.15776463 -0.22925488 -6.27548882 -0.06841046 0 0 Z " fill="#00b9ff" transform="translate(142.59521484375,121.659423828125)"/>
<path d="M0 0 C0.99 0.33 1.98 0.66 3 1 C3.29569096 5.10276902 2.57792025 7.32230148 0.46484375 10.82421875 C-0.08953369 11.7570166 -0.64391113 12.68981445 -1.21508789 13.65087891 C-1.82473389 14.65296387 -2.43437988 15.65504883 -3.0625 16.6875 C-4.35504509 18.85494515 -5.64668101 21.02293268 -6.9375 23.19140625 C-7.60910156 24.31305176 -8.28070313 25.43469727 -8.97265625 26.59033203 C-12.22927257 32.06743987 -15.39161516 37.59798592 -18.5625 43.125 C-20.42663423 46.35443614 -22.29307235 49.58253293 -24.15966797 52.81054688 C-25.39139211 54.94523036 -26.61955788 57.08197082 -27.84423828 59.22070312 C-29.59535697 62.2775094 -31.35883411 65.32686978 -33.125 68.375 C-33.64521729 69.29039551 -34.16543457 70.20579102 -34.70141602 71.14892578 C-40.46209918 81.02841739 -40.46209918 81.02841739 -46.0625 82.56640625 C-46.701875 82.56511719 -47.34125 82.56382812 -48 82.5625 C-48.9590625 82.59537109 -48.9590625 82.59537109 -49.9375 82.62890625 C-55.81152243 80.83777441 -60.37656962 73.06913935 -64.125 68.5 C-64.74503906 67.75363281 -65.36507813 67.00726563 -66.00390625 66.23828125 C-73.73680007 56.84239951 -73.73680007 56.84239951 -74.375 52.375 C-74 50 -74 50 -72.9375 48.1875 C-69.83278368 46.28460935 -67.58389745 46.60709321 -64 47 C-61.3838991 48.51496057 -59.26482509 50.44179951 -57.0625 52.5 C-56.47404297 53.02464844 -55.88558594 53.54929687 -55.27929688 54.08984375 C-53.83901114 55.37790416 -52.41752072 56.68692817 -51 58 C-47.26107049 56.49775154 -45.45906395 54.39834702 -43 51.25 C-39.41974883 46.75113175 -35.76050288 42.34921732 -32 38 C-27.68401287 32.99258726 -23.45773364 27.92422395 -19.2890625 22.79296875 C-12.98040401 15.09554414 -6.49105525 7.5436588 0 0 Z " fill="#00b9ff" transform="translate(397,328)"/>
<path d="M0 0 C0.66 0.33 1.32 0.66 2 1 C-0.79190845 3.99871648 -3.50498547 5.90299128 -7 8 C-13.21175984 12.37513782 -18.17564875 17.15999585 -23 23 C-24.30830954 24.50365634 -25.62070848 26.00376595 -26.9375 27.5 C-27.52402344 28.1703125 -28.11054688 28.840625 -28.71484375 29.53125 C-29.35099609 30.25828125 -29.35099609 30.25828125 -30 31 C-30 27.30390401 -29.09967135 26.51110813 -26.8125 23.6875 C-26.16796875 22.89085938 -25.5234375 22.09421875 -24.859375 21.2734375 C-24.24578125 20.52320312 -23.6321875 19.77296875 -23 19 C-22.57203125 18.43539063 -22.1440625 17.87078125 -21.703125 17.2890625 C-18.84154272 13.58468544 -15.54818373 10.98455898 -11.76953125 8.296875 C-9.87832867 6.97988934 -9.87832867 6.97988934 -8 5 C-6.68790756 4.07333471 -5.3520169 3.17987849 -4 2.3125 C-3.29875 1.85488281 -2.5975 1.39726562 -1.875 0.92578125 C-1.25625 0.62027344 -0.6375 0.31476562 0 0 Z " fill="#00b9ff" transform="translate(49,13)"/>
<path d="M0 0 C0.99 0.33 1.98 0.66 3 1 C2.67 1.33 2.34 1.66 2 2 C1.84028023 4.37338639 1.7407567 6.72118272 1.68359375 9.09765625 C1.66281265 9.80651474 1.64203156 10.51537323 1.62062073 11.24571228 C1.55505402 13.51787305 1.4962077 15.79015264 1.4375 18.0625 C1.39432151 19.59962183 1.35070745 21.1367315 1.30664062 22.67382812 C1.19936551 26.4490959 1.09811863 30.2244836 1 34 C-2.95418664 30.04581336 -2.05508746 22.67679002 -2.09765625 17.30859375 C-2.09111091 15.35153836 -2.07933714 13.39449391 -2.0625 11.4375 C-2.05798828 10.42880859 -2.05347656 9.42011719 -2.04882812 8.38085938 C-2.03716769 5.92050853 -2.02080378 3.46028761 -2 1 C-1.34 0.67 -0.68 0.34 0 0 Z " fill="#00b9ff" transform="translate(266,122)"/>
<path d="M0 0 C2 1 2 1 2 1 Z " fill="#00b9ff" transform="translate(68,508)"/>
<path d="" fill="#00b9ff" transform="translate(0,0)"/>
<path d="" fill="#00b9ff" transform="translate(0,0)"/>
<path d="" fill="#00b9ff" transform="translate(0,0)"/>
<path d="" fill="#00b9ff" transform="translate(0,0)"/>
<path d="" fill="#00b9ff" transform="translate(0,0)"/>
<path d="" fill="#00b9ff" transform="translate(0,0)"/>
<path d="" fill="#00b9ff" transform="translate(0,0)"/>
<path d="" fill="#00b9ff" transform="translate(0,0)"/>
<path d="" fill="#00b9ff" transform="translate(0,0)"/>
<path d="" fill="#00b9ff" transform="translate(0,0)"/>
<path d="" fill="#00b9ff" transform="translate(0,0)"/>
<path d="" fill="#00b9ff" transform="translate(0,0)"/>
<path d="" fill="#00b9ff" transform="translate(0,0)"/>
<path d="" fill="#00b9ff" transform="translate(0,0)"/>
<path d="" fill="#00b9ff" transform="translate(0,0)"/>
</svg>
